# xmcd
#
# Track frame offsets:
#	150
#	33784
#	64162
#	89600
#	109287
#	126262
#	152760
#	171203
#	189818
#	206278
#	229665
#	255697
#	275162
#
# Disc length: 3950 seconds
#
# Revision: 2
# Processed by: cddbd v1.5.1PL0 Copyright (c) Steve Scherf et al.
# Submitted via: dBpowerAMP V4.0
#
DISCID=b20f6c0d
DTITLE=Coleccion Milenium - Varios
DYEAR=2004
DGENRE=New Age
TTITLE0=Icarus
TTITLE1=Heaven on Earth
TTITLE2=Magellans Beat
TTITLE3=Passages
TTITLE4=The way to my heart
TTITLE5=Sea of dreams
TTITLE6=Togheter Forever
TTITLE7=Festive
TTITLE8=Nightblosson
TTITLE9=Into Realm
TTITLE10=Oceanky
TTITLE11=The Pachebel Canon
TTITLE12=Sundial Dreams
EXTD=
EXTT0=
EXTT1=
EXTT2=
EXTT3=
EXTT4=
EXTT5=
EXTT6=
EXTT7=
EXTT8=
EXTT9=
EXTT10=
EXTT11=
EXTT12=
PLAYORDER=
